<?xml version="1.0" encoding="UTF-8"?>
<svg id="Capa_1" xmlns="http://www.w3.org/2000/svg" version="1.1" viewBox="0 0 467.72 467.72">
  <!-- Generator: Adobe Illustrator 30.6.0, SVG Export Plug-In . SVG Version: 2.1.4 Build 109)  -->
  <path d="M350.79,58.47c-5.05,0-10.25.51-15.56,1.29C315.13,24.27,277.47,0,233.86,0s-81.27,24.27-101.37,59.76c-5.31-.78-10.51-1.29-15.56-1.29C52.46,58.47,0,110.91,0,175.4c0,42.14,22.17,79.99,58.47,100.92v147.56c0,24.18,19.67,43.85,43.85,43.85h263.09c24.18,0,43.85-19.67,43.85-43.85v-147.56c36.3-20.93,58.47-58.78,58.47-100.92,0-64.49-52.46-116.93-116.93-116.93h0ZM365.41,438.49H102.31c-8.06,0-14.62-6.57-14.62-14.62v-43.85h292.33v43.85c0,8.05-6.55,14.62-14.62,14.62ZM388.33,254.3c-5.07,2.43-8.31,7.57-8.31,13.19v83.3H87.7v-83.3c0-5.62-3.24-10.76-8.31-13.19-30.95-14.79-50.16-45.02-50.16-78.91,0-48.36,39.34-87.7,87.7-87.7,1.24,0,2.72.44,4,.5-2.36,9.24-4,18.76-4,28.73,0,8.08,6.54,14.62,14.62,14.62s14.62-6.54,14.62-14.62c0-48.36,39.34-87.7,87.7-87.7s87.7,39.34,87.7,87.7c0,8.08,6.54,14.62,14.62,14.62s14.62-6.54,14.62-14.62c0-9.97-1.64-19.49-4-28.73,1.27-.07,2.75-.5,4-.5,48.36,0,87.7,39.34,87.7,87.7,0,33.89-19.21,64.12-50.16,78.91h0Z"/>
</svg>