<svg id="svg943" height="512" viewBox="0 0 6.3499999 6.3500001" width="512" xmlns="http://www.w3.org/2000/svg" xmlns:svg="http://www.w3.org/2000/svg"><g id="layer1"><path id="path23303" d="m3.1762897.2638075c-1.604244 0-2.91248398 1.30824-2.91248398 2.912484s1.30823998 2.909901 2.91248398 2.909901c1.604243 0 2.9099-1.305657 2.9099-2.909901a.26458349.26458349 0 0 0 -.265617-.266134.26458349.26458349 0 0 0 -.26355.266134c0 1.31826-1.062473 2.380734-2.380733 2.380734-1.318261 0-2.38331698-1.062473-2.38331698-2.380734s1.06505598-2.383317 2.38331698-2.383317a.26458349.26458349 0 0 0 .26355-.26355.26458349.26458349 0 0 0 -.26355-.265617zm1.004073.198954c-.103283.001-.200816.06268-.242363.164331-.05577.135376.0086.290321.144178.345716.0031.0013.0051.003.0077.0041.135372.0573.291626-.0068.347782-.142627.056-.134835-.0079-.289556-.142627-.345716-.0038-.0016-.008-.0043-.01137-.0057-.03384-.01394-.06892-.0205-.103353-.02015zm.860929.572575c-.06973.000575-.13638.02856-.185518.07803-.103876.10342-.103876.271752 0 .375171.0022.0022.0035.0035.0057.0057.102879.104416.271212.105407.375171.0021.103876-.103419.103876-.271751 0-.375171-.0027-.0027-.005-.0051-.0077-.0077-.04961-.04995-.117177-.07797-.187583-.07803zm-1.865002.287321a.26458336.26458336 0 0 0 -.266134.265617v1.588017a.26460981.26460981 0 0 0 .146761.236161l1.058334.529167a.26458336.26458336 0 0 0 .355533-.118856.26458336.26458336 0 0 0 -.118855-.355534l-.912089-.455269v-1.423686a.26458336.26458336 0 0 0 -.26355-.265617zm2.443262.568958c-.03464-.000201-.06989.0064-.10387.02067-.135851.05616-.19993.212411-.142627.347782.0013.0032.003.005.0041.0077.05539.135529.210341.200465.345716.144694.13553-.05539.200467-.21034.144694-.345715-.0015-.0036-.0028-.0066-.0041-.0098-.04154-.102456-.140005-.16476-.243913-.165362z" stroke-linecap="round" stroke-linejoin="round"/></g></svg>