<?xml version="1.0" encoding="UTF-8"?>
<svg id="Capa_1" xmlns="http://www.w3.org/2000/svg" version="1.1" viewBox="0 0 394.08 467.01">
  <!-- Generator: Adobe Illustrator 30.6.0, SVG Export Plug-In . SVG Version: 2.1.4 Build 109)  -->
  <path d="M332.45,77.1c6.19-6.16,15.3-4.9,20.37-.3,5.32,4.83,7.12,14.65,1.04,20.81l-25.31,25.65c70.22,62.97,86.38,167.08,36.91,248.79-48.15,79.52-146.66,116.05-237.06,82.56C42.92,422.95-11.55,334.92,2.09,240.99,14.96,152.32,89.08,80.15,182.25,73.57l-.05-43.93-57.46.02c-8.79,0-14.97-6.38-15.34-13.92C108.98,7.19,115.2,0,124.86,0h144.37c9.03,0,15.03,6.35,15.46,13.92.48,8.53-5.91,15.74-15.34,15.74h-57.45s-.1,43.76-.1,43.76c32.83,2.6,64.13,12.74,92.74,31.42l27.91-27.75ZM364.41,269.94c0-92.44-74.94-167.38-167.38-167.38S29.66,177.5,29.66,269.94s74.94,167.38,167.38,167.38,167.38-74.94,167.38-167.38Z"/>
  <path d="M211.85,269.6c0,9.14-7.22,14.75-14.09,15.15-7.23.43-15.47-5.61-15.48-14.32l-.09-109.18c0-8.85,6.44-14.97,13.95-15.37,8.5-.46,15.75,5.89,15.74,15.36l-.04,108.37Z"/>
</svg>