<?xml version="1.0" encoding="UTF-8"?>
<svg id="Capa_1" xmlns="http://www.w3.org/2000/svg" version="1.1" viewBox="0 0 467.72 467.21">
  <!-- Generator: Adobe Illustrator 30.6.0, SVG Export Plug-In . SVG Version: 2.1.4 Build 109)  -->
  <path d="M455.71,397.12l-163.72-163.72,23.64-23.64,56.87-16.27,94.81-94.81-19.36-19.36-76.86,76.86-20.3-20.3,76.86-76.86-19.36-19.36-76.86,76.86-20.3-20.3,76.86-76.86L368.64,0l-94.81,94.81-16.27,56.87-18.58,18.58-12.21-42.67L125.06,25.86C99.32.13,57.44.13,31.71,25.86L0,57.57l175.84,175.84L12.73,396.52c-16.01,16.01-16.01,42.07,0,58.08,8.01,8.01,18.52,12.01,29.04,12.01s21.03-4,29.04-12.01l163.11-163.11,163.72,163.72c8.01,8.01,18.52,12.01,29.04,12.01s21.03-4,29.04-12.01c16.01-16.01,16.01-42.07,0-58.08h0ZM281.94,166.03l13.41-46.88,52.83,52.83-46.88,13.41-28.66,28.66-19.36-19.36,28.66-28.66ZM51.07,45.22c15.06-15.06,39.57-15.06,54.63,0l96.71,96.71,16.27,56.87,34.6,34.6-19.36,19.36L38.72,57.57l12.35-12.35ZM51.45,435.24c-2.59,2.59-6.02,4.01-9.68,4.01s-7.09-1.42-9.68-4.01c-2.59-2.59-4.01-6.02-4.01-9.68s1.42-7.09,4.01-9.68l163.11-163.11,19.36,19.36L51.45,435.24ZM436.35,435.84c-5.34,5.34-14.02,5.34-19.36,0l-163.72-163.72,19.36-19.36,163.72,163.72c5.34,5.34,5.34,14.02,0,19.36Z"/>
</svg>