<svg id="Layer_1" viewBox="0 0 512 512" xmlns="http://www.w3.org/2000/svg" data-name="Layer 1"><path d="m477.74 55.034-.7-.491a22.3 22.3 0 0 0 -31.027 5.472l-60.023 85.721-7.63-5.336 65.918-94.141a12 12 0 1 0 -19.659-13.766l-65.919 94.136-7.629-5.342 60.029-85.723a22.3 22.3 0 0 0 -5.475-31.024l-.7-.494a22.126 22.126 0 0 0 -29 2.985l-93.605 99.505a46.16 46.16 0 0 0 -11.875 42.022l7.476 36.124a22.364 22.364 0 0 1 -4.731 19.418l-16.174 19.958-29.158-30.17a22.59 22.59 0 0 1 -6.153-11.406c18.444-38.521 1.517-84.99-44.9-122.242-21.074-16.917-45.334-29.33-68.305-34.95-26.457-6.476-49.066-3.053-63.663 9.627-14.837 12.89-21.837 35.104-19.713 62.554 1.855 23.986 10.27 50.186 23.693 73.773 23.953 42.089 57.509 65.609 91.465 65.606a74.1 74.1 0 0 0 19.708-2.684 22.57 22.57 0 0 1 10.247 8.072l34.043 46.893-108.602 134.008a47.33 47.33 0 0 0 9.623 68.57l16.662 11.668a46.18 46.18 0 0 0 26.782 8.623 48.953 48.953 0 0 0 10.215-1.1 46.236 46.236 0 0 0 30.73-21.932l72.27-120.381 73.909 101.813a46.242 46.242 0 0 0 32.525 19.17 50.177 50.177 0 0 0 6.129.38 46.071 46.071 0 0 0 30.072-11.1l15.581-13.075a47.329 47.329 0 0 0 3.611-69.148l-110.2-114.03 21.221-35.349a22.362 22.362 0 0 1 16.632-11.078l36.5-5.33a46.16 46.16 0 0 0 35.426-25.53l61.49-121.994a22.124 22.124 0 0 0 -7.116-28.282zm-308.626 421.58a23.332 23.332 0 0 1 -33.385 7.1l-16.662-11.666a23.331 23.331 0 0 1 -4.744-33.8l104.553-129.01 27.762 38.242zm243.938-45.884a22.22 22.22 0 0 1 -8.3 16.657l-15.583 13.074a23.33 23.33 0 0 1 -33.876-4.166l-165.634-228.156a46.216 46.216 0 0 0 -26.878-18.178 12 12 0 0 0 -6.56.278c-15.593 5.157-31.425 2.811-47.057-6.969-14.529-9.092-28.553-24.681-39.489-43.9-11.541-20.276-19.057-43.514-20.623-63.75-1.522-19.682 2.571-34.807 11.524-42.586 8.548-7.429 23.541-9 42.217-4.432 19.356 4.736 40.859 15.8 58.994 30.355 29.94 24.03 55.387 61.77 37.016 95.621a12.008 12.008 0 0 0 -1.43 6.476 46.224 46.224 0 0 0 13.227 29.512l195.929 202.734a22.216 22.216 0 0 1 6.523 17.43zm-11.116-236.23a22.47 22.47 0 0 1 -17.463 12.585l-36.5 5.33a46.54 46.54 0 0 0 -33.741 22.473l-17.912 29.835-22.5-23.282 18.018-22.233a46.545 46.545 0 0 0 9.578-39.393l-7.476-36.124a22.469 22.469 0 0 1 5.853-20.714l81.346-86.472-51.081 72.949a21.655 21.655 0 0 0 5.313 30.134l38.79 27.161a21.662 21.662 0 0 0 30.133-5.314l51.076-72.943z"/></svg>